<?xml version="1.0" encoding="UTF-8"?> <svg xmlns="http://www.w3.org/2000/svg" width="408" height="158" viewBox="0 0 408 158" fill="none"> <g clip-path="url(#clip0_31_8)"> <path d="M164.41 88.3387C164.41 70.9312 164.41 53.5236 164.41 36.1161C164.41 33.5716 163.31 32.639 160.325 32.6257C157.34 32.6124 153.915 32.6257 150.71 32.6257C146.688 32.6257 145.887 33.3051 145.887 36.7289C145.887 69.9009 145.887 103.073 145.887 136.245C145.895 137.31 145.816 138.373 145.651 139.429C145.379 141.163 144.387 142.759 142.852 143.928C141.317 145.098 139.341 145.765 137.278 145.81C135.194 146.001 133.096 145.574 131.341 144.603C129.586 143.632 128.281 142.176 127.647 140.481C127.288 139.244 127.125 137.972 127.16 136.698C127.16 103.206 127.16 69.7144 127.16 36.2227C127.16 33.465 126.139 32.6124 122.887 32.5991H113.209C109.439 32.5991 108.496 33.3318 108.496 36.5957C108.496 69.821 108.496 103.046 108.496 136.272C108.52 137.494 108.409 138.716 108.166 139.922C107.816 141.394 106.942 142.739 105.66 143.776C104.379 144.812 102.753 145.49 101.002 145.717C94.718 146.556 89.895 143.199 89.769 137.724C89.659 133.62 89.769 129.517 89.769 125.414V36.236C89.769 33.4783 88.7479 32.639 85.4809 32.6257H76.054C72.064 32.6257 71.231 33.3318 71.231 36.7689C71.231 70.6203 71.325 104.485 71.153 138.35C71.153 145.264 74.53 150.193 81.286 153.444C92.66 158.919 104.349 159.052 116.006 153.937C116.51 153.664 117.096 153.519 117.695 153.519C118.293 153.519 118.879 153.664 119.384 153.937C131.669 159.172 143.829 159.026 155.518 152.751C158.375 151.32 160.715 149.252 162.283 146.771C163.851 144.291 164.586 141.493 164.41 138.683C164.284 121.884 164.41 105.111 164.41 88.3387ZM213.112 101.221V153.177C213.112 155.908 214.165 156.788 217.417 156.801C220.669 156.814 223.701 156.801 226.843 156.801C230.865 156.801 231.666 156.121 231.666 152.684V52.1692C231.65 51.213 231.697 50.2567 231.807 49.305C232.061 47.3208 233.19 45.4913 234.968 44.183C236.745 42.8747 239.04 42.1842 241.392 42.25C243.745 42.3157 245.981 43.1327 247.653 44.5373C249.325 45.942 250.309 47.8305 250.409 49.8245C250.409 50.5706 250.409 51.3166 250.409 52.0626V152.698C250.409 156.082 251.226 156.694 255.31 156.694H264.171C268.099 156.694 268.884 155.988 268.884 152.698C268.884 118.886 268.884 85.0748 268.884 51.2633C268.929 49.7765 268.84 48.289 268.617 46.8137C267.14 38.6473 261.013 34.0379 252.105 31.7198C250.691 31.3601 250.267 30.8938 250.283 29.6682C250.283 21.1021 250.283 12.5227 250.283 3.95658C250.283 1.13229 249.246 0.266357 245.868 0.266357L236.442 0.266357C232.514 0.266357 231.635 0.999073 231.635 4.26298C231.635 12.7758 231.635 21.3019 231.635 29.8148C231.635 30.7739 231.462 31.3068 230.174 31.6399C218.422 34.6507 213.002 40.9653 213.002 51.3033L213.112 101.221ZM339.77 64.3723C339.77 59.5363 339.864 54.6871 339.77 49.8512C339.581 41.2718 334.475 35.1969 324.939 32.2927C318.1 30.2407 310.719 29.8576 303.636 31.1869C290.392 33.5316 283.998 40.3392 283.998 51.7696C283.998 80.8384 283.998 109.903 283.998 138.963C283.916 141.444 284.537 143.907 285.808 146.143C287.079 148.38 288.963 150.326 291.303 151.818C302.536 159.465 321.561 159.439 332.731 151.739C337.004 148.794 339.864 145.171 339.88 140.308C339.88 131.374 339.88 122.43 339.88 113.477C339.88 111.399 338.748 110.493 336.266 110.48C332.873 110.48 329.479 110.48 326.086 110.48C322.111 110.48 321.373 111.133 321.373 114.477C321.373 122.363 321.373 130.237 321.373 138.11C321.452 139.993 320.685 141.832 319.227 143.254C317.769 144.676 315.728 145.576 313.517 145.77C311.298 146.108 309.011 145.735 307.098 144.723C305.185 143.711 303.783 142.133 303.164 140.295C302.843 139.102 302.695 137.881 302.724 136.658C302.724 129.637 302.724 122.616 302.724 115.582C302.687 115.078 302.791 114.574 303.028 114.11C303.266 113.647 303.63 113.238 304.091 112.918C314.146 105.125 324.106 97.2245 334.224 89.4844C336.15 88.1156 337.681 86.3901 338.697 84.4407C339.713 82.4913 340.187 80.3701 340.084 78.2406C339.77 73.6444 339.77 69.0084 339.77 64.3723ZM179.523 94.6267V153.244C179.523 155.908 180.56 156.774 183.718 156.788C186.876 156.801 190.238 156.788 193.505 156.788C197.15 156.788 198.061 156.015 198.061 152.911V36.3293C198.061 33.465 197.056 32.6257 193.678 32.6257H184.063C180.45 32.6257 179.523 33.4117 179.523 36.5024V94.6267Z" stroke="black" stroke-width="0.5"></path> <path d="M0.42424 46.0544C3.12624 34.8106 18.4912 30.1878 29.1742 30.4942C36.6562 30.5082 43.9032 32.7103 49.6922 36.729C51.8272 38.1825 53.5362 40.0362 54.6842 42.1444C55.8312 44.2526 56.3872 46.5577 56.3062 48.8787C56.2332 78.1873 56.2332 107.523 56.3062 136.884C56.3062 148.182 48.5302 155.642 35.1292 157.174C28.4062 158.144 21.5022 157.63 15.0822 155.682C7.22723 153.084 2.02723 148.475 0.754227 141.148C0.685227 140.952 0.579231 140.768 0.440231 140.601V117.554C0.840231 116.892 1.47023 116.349 2.24623 116.001C3.02223 115.653 3.90523 115.516 4.77623 115.609C8.23223 115.716 11.6892 115.609 15.1452 115.609C17.9262 115.609 19.0102 116.515 19.0252 118.886C19.0252 121.977 19.0252 125.068 19.0252 128.212C19.0252 131.942 19.0252 135.672 19.2452 139.376C19.4312 140.985 20.2572 142.492 21.5882 143.649C22.9182 144.807 24.6742 145.545 26.5662 145.744C27.9572 146.001 29.3982 145.982 30.7782 145.687C32.1582 145.393 33.4392 144.831 34.5192 144.046C35.6002 143.262 36.4522 142.275 37.0072 141.164C37.5632 140.053 37.8072 138.848 37.7212 137.644C37.7212 128.318 37.7212 119.126 37.7212 109.867C37.7212 109.401 37.7212 108.935 37.6262 108.375C31.4882 109.464 25.1462 109.428 19.0252 108.269C9.85022 106.337 3.20524 102.167 0.958237 94.0139C0.786237 93.3612 0.581234 92.6817 0.393234 92.0423L0.42424 46.0544ZM37.7362 70.0342C37.7362 63.3731 37.8152 56.7121 37.7362 50.051C37.7532 48.1428 36.9572 46.2935 35.4952 44.8428C34.0332 43.3921 32.0032 42.4373 29.7782 42.1538C27.5522 41.8703 25.2812 42.2772 23.3812 43.2996C21.4802 44.3221 20.0792 45.8915 19.4342 47.7197C19.1202 48.8588 18.9772 50.0272 19.0102 51.1967C19.0102 63.6307 19.0102 76.038 19.0102 88.4187C19.0362 89.2707 19.1252 90.1206 19.2772 90.9632C19.4042 92.0014 19.8102 93.001 20.4642 93.8855C21.1172 94.7699 22.0012 95.5157 23.0472 96.0655C24.4582 96.8812 26.1032 97.3567 27.8082 97.4411C29.5122 97.5256 31.2122 97.2159 32.7252 96.5451C34.2842 95.9448 35.5972 94.9637 36.4952 93.7273C37.3942 92.4909 37.8372 91.0554 37.7682 89.6043C37.7522 83.0499 37.7052 76.5087 37.7052 69.9543L37.7362 70.0342Z" fill="white" stroke="black" stroke-width="0.5"></path> <path d="M407.607 142.16C403.083 151.952 394.206 157.147 381.544 157.507C373.894 157.939 366.298 156.165 359.989 152.471C357.315 151.005 355.14 148.971 353.682 146.57C352.224 144.17 351.533 141.487 351.678 138.79C351.898 130.597 351.678 122.39 351.678 114.197C351.678 111.533 352.699 110.627 355.826 110.613H366.194C369.085 110.613 370.201 111.573 370.201 113.997C370.201 121.871 370.201 129.744 370.201 137.631C370.117 138.822 370.358 140.014 370.904 141.114C371.449 142.214 372.286 143.193 373.348 143.976C374.411 144.758 375.671 145.324 377.032 145.628C378.393 145.932 379.818 145.967 381.198 145.73C383.122 145.552 384.916 144.818 386.277 143.651C387.639 142.484 388.486 140.956 388.676 139.322C388.975 136.205 388.88 133.048 388.896 129.904C388.896 125.907 388.896 121.817 388.896 117.767C388.946 115.818 388.491 113.883 387.562 112.099C386.634 110.315 385.255 108.725 383.523 107.443C375.102 100.902 366.823 94.2006 358.276 87.7793C356.043 86.2291 354.272 84.2555 353.104 82.0177C351.936 79.78 351.404 77.3408 351.552 74.8969C351.819 67.0768 351.552 59.2434 351.631 51.4233C351.631 40.1662 358.669 33.0122 371.803 31.0672C378.681 29.8869 385.807 30.3011 392.431 32.2662C400.585 34.824 405.926 39.4867 407.199 47.027C407.262 47.226 407.363 47.415 407.497 47.5866V76.0292C407.006 76.6733 406.311 77.1864 405.491 77.5094C404.671 77.8323 403.76 77.9519 402.863 77.8544C399.721 77.7611 396.453 77.8544 393.248 77.8544C390.043 77.8544 388.896 77.0151 388.896 74.1242C388.896 66.5705 388.896 59.0169 388.896 51.4766C388.902 50.5859 388.839 49.6959 388.708 48.8122C388.555 47.4786 387.956 46.2097 386.982 45.1547C386.008 44.0997 384.699 43.3027 383.209 42.8572C381.802 42.3569 380.272 42.1575 378.754 42.2767C377.235 42.3958 375.774 42.8299 374.5 43.5406C373.226 44.2514 372.177 45.2169 371.446 46.3523C370.716 47.4876 370.326 48.7579 370.311 50.0511C370.185 56.8055 370.311 63.5597 370.311 70.314C370.229 72.3223 370.676 74.3206 371.619 76.1641C372.562 78.0075 373.977 79.6498 375.762 80.9717C383.617 87.1132 391.473 93.3613 399.453 99.4628C403.177 102.314 406.617 105.245 407.654 109.628L407.607 142.16Z" fill="white" stroke="black" stroke-width="0.5"></path> <path d="M164.41 88.3388C164.41 105.111 164.284 121.884 164.41 138.656C164.586 141.467 163.851 144.264 162.283 146.745C160.715 149.225 158.375 151.293 155.518 152.725C143.813 158.999 131.653 159.146 119.384 153.91C118.879 153.637 118.293 153.493 117.695 153.493C117.096 153.493 116.51 153.637 116.006 153.91C104.349 159.026 92.6599 158.893 81.2859 153.417C74.5299 150.167 71.1209 145.237 71.1529 138.323C71.3249 104.459 71.2309 70.5938 71.2309 36.7424C71.2309 33.3053 72.0639 32.5992 76.0539 32.5992H85.4799C88.7479 32.5992 89.7689 33.4518 89.7689 36.2095L89.7689 125.334C89.7689 129.437 89.7689 133.541 89.7689 137.644C89.8949 143.159 94.6709 146.516 101.002 145.637C102.753 145.41 104.379 144.732 105.66 143.696C106.942 142.659 107.816 141.314 108.166 139.842C108.409 138.637 108.52 137.415 108.496 136.192C108.496 102.967 108.496 69.7412 108.496 36.5159C108.496 33.292 109.36 32.5193 113.209 32.5193H122.824C126.076 32.5193 127.097 33.3852 127.097 36.1429C127.097 69.6346 127.097 103.126 127.097 136.618C127.081 137.931 127.277 139.24 127.679 140.508C128.312 142.202 129.617 143.659 131.372 144.63C133.128 145.601 135.225 146.028 137.309 145.837C139.372 145.792 141.348 145.125 142.883 143.955C144.418 142.786 145.411 141.19 145.683 139.456C145.847 138.4 145.926 137.336 145.919 136.272C145.919 103.1 145.919 69.9277 145.919 36.7557C145.919 33.3319 146.72 32.6525 150.742 32.6525C153.884 32.6525 157.151 32.6525 160.356 32.6525C163.561 32.6525 164.441 33.5984 164.441 36.1429C164.431 53.5415 164.42 70.9402 164.41 88.3388Z" fill="white" stroke="black" stroke-width="0.5"></path> <path d="M213.065 101.221V51.3834C213.065 40.9921 218.485 34.7308 230.236 31.72C231.525 31.3869 231.698 30.854 231.698 29.8948C231.698 21.382 231.698 12.8559 231.698 4.34306C231.698 1.06583 232.577 0.346436 236.505 0.346436L245.931 0.346436C249.309 0.346436 250.346 1.21237 250.346 4.03665C250.346 12.6028 250.346 21.1822 250.346 29.7483C250.346 30.9739 250.754 31.4402 252.168 31.7999C261.076 34.1179 267.203 38.7274 268.68 46.8938C268.903 48.3691 268.992 49.8566 268.947 51.3434C268.947 85.1549 268.947 118.966 268.947 152.778C268.947 156.068 268.099 156.774 264.234 156.774H255.373C251.288 156.774 250.471 156.095 250.471 152.778V52.0628C250.471 51.3168 250.471 50.5707 250.471 49.8247C250.372 47.8306 249.388 45.9421 247.716 44.5375C246.044 43.1328 243.807 42.3158 241.455 42.2501C239.103 42.1844 236.808 42.8749 235.031 44.1832C233.253 45.4914 232.124 47.321 231.87 49.3051C231.76 50.2569 231.713 51.2131 231.729 52.1694V152.631C231.729 156.068 230.928 156.748 226.906 156.748C223.764 156.748 220.622 156.748 217.48 156.748C214.337 156.748 213.175 155.855 213.175 153.124L213.065 101.221Z" fill="white" stroke="black" stroke-width="0.5"></path> <path d="M339.77 64.3723C339.77 69.0084 339.675 73.6978 339.77 78.2673C339.873 80.3968 339.399 82.5179 338.383 84.4674C337.367 86.4168 335.836 88.1423 333.91 89.5111C323.792 97.2512 313.832 105.151 303.777 112.945C303.316 113.265 302.952 113.674 302.714 114.137C302.477 114.6 302.372 115.105 302.41 115.609C302.41 122.643 302.41 129.664 302.41 136.685C302.381 137.908 302.529 139.129 302.85 140.322C303.469 142.16 304.871 143.738 306.783 144.75C308.697 145.761 310.984 146.134 313.203 145.797C315.414 145.602 317.455 144.703 318.913 143.281C320.371 141.859 321.138 140.02 321.059 138.137C321.059 130.263 321.059 122.39 321.059 114.503C321.059 111.173 321.828 110.507 325.772 110.507C329.165 110.507 332.559 110.507 335.952 110.507C338.434 110.507 339.55 111.426 339.565 113.504C339.565 122.457 339.565 131.4 339.565 140.335C339.565 145.197 336.691 148.821 332.417 151.765C321.247 159.465 302.222 159.492 290.989 151.845C288.649 150.353 286.765 148.407 285.494 146.17C284.223 143.933 283.602 141.471 283.683 138.989C283.767 109.921 283.767 80.8562 283.683 51.7963C283.683 40.3659 290.077 33.5583 303.321 31.2136C310.42 29.8766 317.818 30.2598 324.672 32.3194C334.208 35.2502 339.314 41.2984 339.503 49.8779C339.613 54.7138 339.503 59.563 339.503 64.399L339.77 64.3723ZM302.646 93.3079C302.884 93.2396 303.111 93.1455 303.321 93.0281C307.956 89.4312 312.638 85.8742 317.178 82.2106C318.476 81.154 319.506 79.8831 320.203 78.4764C320.9 77.0696 321.25 75.5567 321.231 74.0308C321.326 66.0376 321.31 57.9644 321.231 49.9178C321.311 48.4685 320.874 47.0324 319.978 45.7967C319.081 44.561 317.766 43.5831 316.204 42.9904C314.619 42.3166 312.843 42.0355 311.078 42.1793C309.314 42.323 307.632 42.8858 306.228 43.803C303.086 45.6415 302.583 48.3458 302.583 51.2767C302.583 64.7498 302.583 78.2184 302.583 91.6826C302.536 92.1888 302.599 92.6818 302.646 93.3079Z" fill="white" stroke="black" stroke-width="0.5"></path> <path d="M179.523 94.6267V36.5025C179.523 33.4117 180.45 32.6257 184.063 32.6257H193.663C197.04 32.6257 198.046 33.465 198.046 36.3293V152.884C198.046 155.988 197.135 156.761 193.49 156.761C190.222 156.761 186.97 156.761 183.702 156.761C180.434 156.761 179.507 155.882 179.507 153.217L179.523 94.6267Z" fill="white" stroke="black" stroke-width="0.5"></path> </g> <defs> <clipPath id="clip0_31_8"> <rect width="158" height="408" fill="white" transform="translate(408) rotate(90)"></rect> </clipPath> </defs> </svg>