<?xml version="1.0" encoding="UTF-8"?> <svg xmlns="http://www.w3.org/2000/svg" width="764" height="798" viewBox="0 0 764 798" fill="none"> <path d="M201.694 558.868C205.457 559.367 209.279 560.102 210.098 560.543C211.214 561.16 211.309 560.937 210.314 559.793C208.976 558.09 208.976 558.09 211.647 558.664C213.855 559.206 214.139 559.532 213.743 561.571C213.334 563.761 213.334 563.761 214.31 562.225C214.847 561.344 216.215 560.754 217.521 560.924C219.504 561.372 219.575 561.455 217.731 562.164C215.972 562.804 215.96 562.955 217.729 563.159C218.869 563.471 220.141 563.102 220.569 562.597C220.998 562.092 222.221 562.333 223.24 563.172C225.279 564.85 227.181 564.375 225.534 562.648C225.108 562.159 224.125 560.862 223.427 559.893C222.373 558.516 222.468 558.293 223.833 558.699C224.818 558.998 226.205 560.094 226.963 561.296C228.218 563.071 229.001 562.974 232.974 560.887C237.767 558.245 240.151 554.666 237.659 553.797C236.828 553.508 236.84 553.356 237.54 553.329C238.312 553.385 239.143 553.675 239.428 554.001C240.209 554.9 245.007 555.092 245.081 554.178C245.118 553.721 246.916 551.63 249.036 549.41C252.251 546.119 253.713 545.306 256.671 545.212C258.619 545.122 260.675 544.658 261.258 544.164C261.841 543.67 263.184 543.384 264.253 543.613C265.405 543.773 267.794 543.026 269.745 541.942C271.778 540.787 274.167 540.04 275.235 540.269C276.684 540.602 277.328 539.348 278.577 533.467C279.645 528.873 281.079 525.532 282.578 524.262C283.911 523.133 284.294 522.242 283.497 522.49C281.382 522.721 284.261 511.062 287.191 507.445C288.49 505.778 289.303 503.387 289.093 502.147C288.811 500.825 288.992 499.537 289.467 499.417C289.955 499.147 290.146 498.701 289.874 498.223C287.365 494.673 287.346 482.348 289.929 480.16C291.096 479.172 290.953 479.009 289.539 479.213C288.126 479.418 287.641 478.694 287.387 475.078C287.074 472.222 287.397 471.098 288.287 471.621C289.105 472.063 289.424 472.928 288.983 473.585C288.625 474.172 288.635 475.014 289.062 475.504C290.199 476.811 290.735 471.108 289.755 468.817C289.377 467.718 288.299 466.646 287.623 466.367C286.032 465.871 284.908 474.057 286.329 475.69C287.608 477.16 285.717 478.478 282.117 478.833C278.126 479.234 278.111 480.382 281.902 484.405C284.911 487.531 286.86 492.264 285.161 492.142C284.615 492.179 284.091 492.907 283.934 493.891C283.694 494.946 282.907 496.037 282.028 496.357C281.148 496.676 280.266 497.99 279.919 499.421C279.724 500.861 279.771 501.248 280.153 500.355C280.619 499.394 280.94 499.264 281.021 500.188C281.114 500.961 280.577 501.841 279.697 502.161C278.663 502.469 278.458 504.061 279.164 506.869C280.423 511.476 279.755 513.035 277.48 510.422C276.414 509.197 275.797 509.153 275.081 510.326C274.545 511.206 274.091 512.015 273.925 512.157C273.842 512.227 273.884 514.603 273.972 517.366C274.237 520.83 274.543 521.847 275.188 520.592C275.725 519.712 276.39 519.147 276.675 519.474C277.385 520.291 274.245 527.49 272.662 528.831C271.995 529.396 272.148 530.402 272.87 531.066C273.652 531.965 273.649 532.959 272.733 533.736C271.983 534.37 271.045 534.456 270.773 533.978C270.513 533.347 270.633 532.819 271.108 532.7C271.596 532.429 271.633 531.972 271.206 531.483C270.851 531.074 269.579 531.442 268.413 532.43C267.33 533.347 265.654 533.915 264.823 533.626C261.571 532.551 256.4 534.093 252.106 537.306C249.464 539.259 246.241 540.712 243.819 540.92C240.61 541.226 230.721 544.495 229.221 545.765C228.971 545.977 229.41 546.315 230.241 546.604C231.072 546.894 231.058 547.046 230.109 547.284C227.91 547.585 225.002 551.892 226.592 552.389C227.268 552.667 228.398 552.137 228.935 551.256C229.625 550.388 231.86 549.63 234.2 549.492C236.458 549.424 237.906 549.758 237.323 550.252C236.823 550.675 235.717 550.902 235.113 550.706C234.435 550.428 233.319 550.806 232.652 551.371C231.986 551.936 231.936 552.544 232.613 552.823C234.583 553.424 231.632 555.355 229.092 555.096C227.856 555.007 226.906 555.245 226.798 555.62C226.774 555.924 225.693 555.847 224.399 555.524C222.358 554.841 222.145 554.596 223.394 553.538C224.644 552.48 224.586 552.245 222.934 552.509C220.26 552.93 218.498 554.564 220.172 554.99C221.002 555.279 220.966 555.736 220.087 556.056C219.207 556.376 218.28 556.309 217.925 555.9C216.504 554.267 214.009 554.394 212.949 556.002C212.149 557.246 211.211 557.332 209.728 556.46C208.246 555.587 207.7 555.624 207.839 556.783C208.062 557.871 207.729 558.154 206.743 557.853C205.984 557.645 205.629 557.237 205.962 556.954C206.378 556.602 204.087 556.13 200.929 555.827C197.758 555.676 194.102 554.8 192.606 554.081C190.151 552.756 190.151 552.756 192.425 555.369C194.214 557.258 196.694 558.278 201.694 558.868Z" fill="white"></path> <path d="M296.527 512.021C304.325 504.849 317.141 484.489 315.294 482.365C314.867 481.876 314.975 481.501 315.51 481.616C316.056 481.579 317.906 477.884 319.746 473.346C323.283 464.108 323.654 463.368 324.551 465.73C324.928 466.829 325.617 466.955 326.45 466.25C327.199 465.615 331.664 466.088 336.543 467.205C349.411 470.349 364.075 472.399 370.252 471.847C377.131 471.27 377.964 470.565 373.68 468.802C369.468 467.121 368.828 466.386 371.548 466.352C372.712 466.36 373.437 466.028 373.082 465.62C372.727 465.212 365.52 464.081 356.982 463.085C348.528 462.018 339.493 460.451 337.014 459.429C332.801 457.749 332.659 457.586 335.141 457.611C340.034 457.58 340.701 457.016 341.412 453.009C341.821 450.819 342.729 448.204 343.42 447.336C345.648 444.74 350.576 450.07 350.932 455.302C351.197 458.766 351.598 459.56 354.066 460.732C358.266 462.565 358.854 460.082 355.23 455.916C353.524 453.957 351.725 451.225 351.135 449.881C350.108 447.204 351.963 446.342 353.882 448.546C354.592 449.363 356.409 449.954 357.905 449.678C360.412 449.399 361.503 450.32 370.791 460.327C380.943 471.161 381.203 471.792 378.182 473.642C377.361 474.196 377.646 474.522 379.733 475.591C380.849 476.207 381.811 475.817 383.038 474.068C384.087 472.612 384.813 472.282 384.906 473.054C385.164 474.68 387.79 473.873 390.873 471.263C392.706 469.71 392.792 468.645 391.777 465.816C391.081 463.852 389.792 461.539 389.08 460.723C387.659 459.09 388.848 458.793 390.744 460.306C393.234 462.17 395.739 462.885 396.739 462.039C397.405 461.474 398.795 461.574 399.897 462.342C401.012 462.958 403.257 463.044 404.779 462.464C407.096 461.635 407.547 461.82 407.129 463.169C406.614 464.739 407.124 465.159 410.447 466.315C415.74 468.074 417.938 467.773 422.673 464.898C427.002 462.224 428.914 462.591 426.329 465.773L424.779 467.652L426.755 466.264C427.838 465.346 429.097 465.13 429.524 465.62C430.021 466.191 429.413 466.99 428.2 467.592C426.584 468.394 426.488 468.617 428.091 468.961C429.705 469.154 429.014 470.023 423.231 474.354C419.424 477.295 414.023 480.735 411.206 481.988C408.233 483.228 404.844 484.822 403.393 485.483L400.884 486.757L403.962 486.136C409.559 485.084 437.142 468.388 432.521 468.898C431.036 469.02 430.989 468.634 432.063 466.874C433.136 465.114 433.089 464.728 431.675 464.933C430.262 465.137 430.286 464.832 431.536 463.774C433.368 462.222 438.105 463.175 438.422 465.035C438.515 465.807 439.715 465.358 441.132 464.158C442.548 462.958 443.501 461.726 443.146 461.317C442.861 460.99 444.873 459.144 447.443 457.109C450.085 455.156 452.595 453.882 452.95 454.29C453.66 455.107 458.218 451.53 458.341 450.007C458.509 448.871 460.116 447.227 470.879 436.976C474.998 433.062 478.486 429.255 478.631 428.424C478.788 427.44 480.04 425.386 481.339 423.719C484.973 419.081 495.998 397.826 496.028 395.531C495.958 394.455 496.699 392.976 497.614 392.201C498.615 391.354 499.747 385.005 500.42 376.632L501.546 362.628L494.721 350.961C487.895 339.293 483.986 334.801 477.723 331.596C475.042 330.178 474.805 330.238 475.5 332.201C476.208 334.013 475.52 333.887 471.107 331.809C468.188 330.451 465.436 328.951 464.867 328.298C464.37 327.727 463.468 327.355 462.838 327.463C462.292 327.5 460.642 326.77 459.326 325.757C456.837 323.893 446.383 324.52 436.484 326.947L432.597 327.969L437.38 329.308C442.698 330.762 457.194 338.77 462.587 343.138L466.012 345.911L462.144 344.792C458.049 343.578 452.926 345.507 452.371 348.529C452.19 349.817 451.655 349.702 450.093 347.906C448.529 346.109 448.066 346.076 448.265 347.468C448.416 348.474 449.458 350.003 450.644 350.702C451.889 351.632 452.362 352.509 451.779 353.003C451.278 353.426 450.507 353.371 450.08 352.88C449.582 352.309 448.134 351.975 446.805 352.109C445.248 352.151 444.797 351.965 445.476 351.248C446.059 350.755 446.108 350.146 445.503 349.949C444.968 349.834 445.091 348.312 445.843 346.682C447.073 343.937 447.085 343.785 445.005 344.554C440.928 346.022 438.145 357.458 441.742 358.099C442.739 358.247 443.068 359.956 442.836 362.847C442.639 365.284 443.036 368.068 443.889 369.047C445.453 370.844 445.605 376.674 444.106 377.943C443.523 378.437 442.554 380.817 441.883 383.372C440.756 387.731 440.59 387.872 435.787 389.671C431.222 391.41 427.01 394.551 411.477 408.133C407.216 411.884 406.155 413.492 405.768 416.374C405.489 418.879 404.952 419.76 404.063 419.236C403.386 418.958 402.043 419.244 401.21 419.95C400.294 420.726 399.498 420.975 399.309 420.425C399.275 419.887 395.8 422.546 391.539 426.297C387.278 430.049 383.636 432.848 383.281 432.44C382.571 431.624 376.611 435.253 368.925 441.054C365.7 443.502 362.394 445.025 359.399 445.576C356.809 445.925 354.695 446.156 354.482 445.911C354.339 445.748 353.81 443.643 353.388 441.162C352.602 437.432 351.974 436.544 349.59 435.301C346.078 433.594 335.136 434.492 332.007 436.717C330.771 437.623 329.128 438.73 328.379 439.365C326.083 440.884 323.438 439.01 323.53 435.954C323.593 434.198 323.261 433.485 322.596 434.05C322.012 434.544 321.478 434.428 321.456 433.738C321.139 431.878 317.217 433.357 315.143 435.964C312.367 439.592 312.996 454.947 315.828 452.548C316.412 452.055 317.164 450.424 317.511 448.995C318.339 445.457 320.077 444.126 323.032 445.028C325.762 445.837 325.834 445.919 321.937 450.92C317.338 456.944 314.398 459.718 313.617 458.819C313.189 458.33 312.391 459.574 311.827 461.754C311.095 465.069 310.571 465.797 308.027 466.533C306.28 467.019 304.903 466.768 304.797 466.147C304.621 465.446 303.754 465.613 302.671 466.531C301.587 467.447 301.372 468.198 302.156 468.101C303.332 467.956 305.205 469.774 307.927 473.568C308.484 474.374 308.528 475.755 308.157 476.494C307.525 477.597 307.146 477.492 306.626 476.231C306.035 474.886 305.94 475.109 306.006 477.181C306.084 479.101 306.783 480.07 308.136 480.626C309.868 481.287 309.974 481.906 308.792 484.042C306.788 487.726 306.385 487.926 306.295 485.163C306.313 483.021 306.229 483.092 305.404 485.635C304.973 487.136 304.78 488.576 305.135 488.984C305.418 489.312 305.823 489.11 306.11 488.442C306.314 487.844 306.872 487.655 307.37 488.227C307.867 488.798 307.175 489.667 305.784 490.562C304.488 491.234 303.809 491.951 304.26 492.137C304.795 492.252 304.542 493.459 303.589 494.692C302.707 496.006 302.288 497.354 302.714 497.843C303.14 498.334 304.116 497.791 304.903 496.7C305.868 495.314 305.831 495.772 304.959 497.929C304.111 499.781 302.039 502.388 300.443 503.881C298.776 505.292 297.287 507.405 297.189 508.624C297.091 509.841 295.732 512.27 294.124 513.914C292.504 515.712 293.587 514.795 296.527 512.021Z" fill="white"></path> <path d="M501.636 354.749C501.886 354.537 502.415 351.819 502.66 348.775C503.294 341.855 505.408 336.801 510.473 329.816C516.598 321.223 523.158 314.958 552.332 289.113L579.743 264.902L544.266 294.81C524.7 311.24 507.788 325.566 506.383 326.612C504.3 328.377 503.921 328.273 501.291 325.252C498.591 322.148 498.532 321.915 501.114 319.727L503.793 317.317L498.622 318.859C488.364 321.873 483.932 322.932 478.918 323.49L473.821 324.12L476.039 325.503C487.127 332.425 495.087 341.571 500.273 353.35C500.735 354.378 501.303 355.032 501.636 354.749Z" fill="white"></path> <path d="M654.45 255.957C654.326 253.65 654.421 253.428 655.487 254.654C656.127 255.388 657.028 255.759 657.529 255.336C657.945 254.983 658.006 254.222 657.579 253.732C657.153 253.241 657.523 252.503 658.473 252.265C660.876 251.366 659.66 248.139 653.694 239.29C646.947 229.543 647.09 229.706 646.658 231.205C646.372 231.875 645.684 231.748 644.89 231.003C643.895 229.859 643.728 229.999 644.424 231.964C645.225 234.548 644.199 236.694 642.778 235.061C642.423 234.653 641.875 234.69 641.672 235.287C641.54 235.967 640.756 236.064 640.079 235.786C639.415 235.355 638.715 235.381 638.677 235.838C638.604 236.751 649.505 252.769 652.561 256.28C654.564 258.414 654.564 258.414 654.45 255.957Z" fill="white"></path> </svg> 